<svg xmlns="http://www.w3.org/2000/svg" width="27.455" height="27.455" viewBox="0 0 27.455 27.455"><g transform="translate(0)"><path d="M3.432,12.011a8.5,8.5,0,0,1,8.58-8.58,8.5,8.5,0,0,1,8.58,8.58,8.5,8.5,0,0,1-8.58,8.58A8.5,8.5,0,0,1,3.432,12.011ZM24.538,26.94a1.7,1.7,0,0,0,2.4-2.4l-5.319-5.319a11.749,11.749,0,0,0,2.4-7.207A11.938,11.938,0,0,0,12.011,0,11.938,11.938,0,0,0,0,12.011,11.938,11.938,0,0,0,12.011,24.023a11.749,11.749,0,0,0,7.207-2.4Z" transform="translate(0)" fill="#fff"/></g></svg>